ffmpeg version 3.4.8-0ubuntu0.2 Copyright (c) 2000-2020 the FFmpeg developers
  built with gcc 7 (Ubuntu 7.5.0-3ubuntu1~18.04)
  configuration: --prefix=/usr --extra-version=0ubuntu0.2 --toolchain=hardened --libdir=/usr/lib/x86_64-linux-gnu --incdir=/usr/include/x86_64-linux-gnu --enable-gpl --disable-stripping --enable-avresample --enable-avisynth --enable-gnutls --enable-ladspa --enable-libass --enable-libbluray --enable-libbs2b --enable-libcaca --enable-libcdio --enable-libflite --enable-libfontconfig --enable-libfreetype --enable-libfribidi --enable-libgme --enable-libgsm --enable-libmp3lame --enable-libmysofa --enable-libopenjpeg --enable-libopenmpt --enable-libopus --enable-libpulse --enable-librubberband --enable-librsvg --enable-libshine --enable-libsnappy --enable-libsoxr --enable-libspeex --enable-libssh --enable-libtheora --enable-libtwolame --enable-libvorbis --enable-libvpx --enable-libwavpack --enable-libwebp --enable-libx265 --enable-libxml2 --enable-libxvid --enable-libzmq --enable-libzvbi --enable-omx --enable-openal --enable-opengl --enable-sdl2 --enable-libdc1394 --enable-libdrm --enable-libiec61883 --enable-chromaprint --enable-frei0r --enable-libopencv --enable-libx264 --enable-shared
  libavutil      55. 78.100 / 55. 78.100
  libavcodec     57.107.100 / 57.107.100
  libavformat    57. 83.100 / 57. 83.100
  libavdevice    57. 10.100 / 57. 10.100
  libavfilter     6.107.100 /  6.107.100
  libavresample   3.  7.  0 /  3.  7.  0
  libswscale      4.  8.100 /  4.  8.100
  libswresample   2.  9.100 /  2.  9.100
  libpostproc    54.  7.100 / 54.  7.100
[rawvideo @ 0x557ea8c53a20] Estimating duration from bitrate, this may be inaccurate
Input #0, rawvideo, from '../../SVC-Encoder-20220109T061506Z-001/SVC-Encoder/Dataset/RollerCoaster/ERP_8x8/tile_yuv/Tile_37_480x240.yuv':
  Duration: 00:00:10.00, start: 0.000000, bitrate: 41472 kb/s
    Stream #0:0: Video: rawvideo (I420 / 0x30323449), yuv420p, 480x240, 41472 kb/s, 30 tbr, 30 tbn, 30 tbc
Stream mapping:
  Stream #0:0 -> #0:0 (rawvideo (native) -> h264 (libx264))
Press [q] to stop, [?] for help
[libx264 @ 0x557ea8c60c60] using cpu capabilities: MMX2 SSE2Fast LZCNT SSSE3 SSE4.2 AVX
[libx264 @ 0x557ea8c60c60] profile High, level 2.1
Output #0, rawvideo, to 'RollerCoaster_Tile_37_480x240_x264_QP_20.h264':
  Metadata:
    encoder         : Lavf57.83.100
    Stream #0:0: Video: h264 (libx264), yuv420p, 480x240, q=-1--1, 30 fps, 30 tbn, 30 tbc
    Metadata:
      encoder         : Lavc57.107.100 libx264
    Side data:
      cpb: bitrate max/min/avg: 0/0/0 buffer size: 0 vbv_delay: -1
frame=  128 fps=0.0 q=26.0 PSNR=Y:nan U:nan V:nan *:nan size=     196kB time=00:00:02.83 bitrate= 567.9kbits/s speed=5.66x    frame=  245 fps=245 q=26.0 PSNR=Y:nan U:nan V:nan *:nan size=     256kB time=00:00:06.73 bitrate= 311.5kbits/s speed=6.73x    frame=  300 fps=216 q=26.0 LPSNR=Y:inf U:inf V:inf *:inf size=     595kB time=00:00:09.93 bitrate= 490.4kbits/s speed=7.16x    
video:595kB audio:0kB subtitle:0kB other streams:0kB global headers:0kB muxing overhead: 0.000000%
[libx264 @ 0x557ea8c60c60] frame I:2     Avg QP:17.81  size: 24660  PSNR Mean Y:47.05 U:51.90 V:55.32 Avg:48.31 Global:48.29
[libx264 @ 0x557ea8c60c60] frame P:76    Avg QP:19.91  size:  5824  PSNR Mean Y:44.07 U:50.45 V:52.35 Avg:45.43 Global:45.28
[libx264 @ 0x557ea8c60c60] frame B:222   Avg QP:25.47  size:   527  PSNR Mean Y:43.55 U:50.35 V:52.40 Avg:44.94 Global:44.78
[libx264 @ 0x557ea8c60c60] consecutive B-frames:  1.3%  0.0%  0.0% 98.7%
[libx264 @ 0x557ea8c60c60] mb I  I16..4:  7.8% 79.8% 12.4%
[libx264 @ 0x557ea8c60c60] mb P  I16..4:  1.0%  0.6%  0.5%  P16..4: 35.5% 29.2% 23.5%  0.0%  0.0%    skip: 9.7%
[libx264 @ 0x557ea8c60c60] mb B  I16..4:  0.0%  0.0%  0.0%  B16..8: 52.7%  4.4%  0.8%  direct: 0.3%  skip:41.8%  L0:41.3% L1:50.2% BI: 8.5%
[libx264 @ 0x557ea8c60c60] 8x8 transform intra:56.1% inter:63.5%
[libx264 @ 0x557ea8c60c60] coded y,uvDC,uvAC intra: 68.6% 77.1% 40.6% inter: 19.2% 10.7% 0.2%
[libx264 @ 0x557ea8c60c60] i16 v,h,dc,p: 14% 47% 29% 10%
[libx264 @ 0x557ea8c60c60] i8 v,h,dc,ddl,ddr,vr,hd,vl,hu:  7% 15% 18%  8%  9% 11%  9%  7% 16%
[libx264 @ 0x557ea8c60c60] i4 v,h,dc,ddl,ddr,vr,hd,vl,hu:  9% 11% 15%  6% 11% 29%  6%  4%  8%
[libx264 @ 0x557ea8c60c60] i8c dc,h,v,p: 51% 23% 15% 11%
[libx264 @ 0x557ea8c60c60] Weighted P-Frames: Y:1.3% UV:0.0%
[libx264 @ 0x557ea8c60c60] ref P L0: 64.9% 21.2% 10.9%  2.9%  0.0%
[libx264 @ 0x557ea8c60c60] ref B L0: 93.0%  6.5%  0.5%
[libx264 @ 0x557ea8c60c60] ref B L1: 94.4%  5.6%
[libx264 @ 0x557ea8c60c60] PSNR Mean Y:43.703 U:50.386 V:52.409 Avg:45.091 Global:44.917 kb/s:487.12
